<svg version="1.1"
     id="climacon-clear-day"
     class="climacon clear-day"
     xmlns="http://www.w3.org/2000/svg"
     xmlns:xlink="http://www.w3.org/1999/xlink"
     x="0px"
     y="0px"
     viewBox="15 15 70 70"
     enable-background="new 15 15 70 70"
     xml:space="preserve">
  <style></style>
  <g>
    <g class="sun">
      <g class="sun-spokes">
        <path class="stroke sun-spoke sun-spoke-east" d="M72.03,51.999h-3.998c-1.105,0-2-0.896-2-1.999s0.895-2,2-2h3.998c1.104,0,2,0.896,2,2S73.136,51.999,72.03,51.999z"/>
        <path class="stroke sun-spoke sun-spoke-north-east" d="M64.175,38.688c-0.781,0.781-2.049,0.781-2.828,0c-0.781-0.781-0.781-2.047,0-2.828l2.828-2.828c0.779-0.781,2.047-0.781,2.828,0c0.779,0.781,0.779,2.047,0,2.828L64.175,38.688z"/>
        <path class="stroke sun-spoke sun-spoke-north" d="M50.034,34.002c-1.105,0-2-0.896-2-2v-3.999c0-1.104,0.895-2,2-2c1.104,0,2,0.896,2,2v3.999C52.034,33.106,51.136,34.002,50.034,34.002z"/>
        <path class="stroke sun-spoke sun-spoke-north-west" d="M35.893,38.688l-2.827-2.828c-0.781-0.781-0.781-2.047,0-2.828c0.78-0.781,2.047-0.781,2.827,0l2.827,2.828c0.781,0.781,0.781,2.047,0,2.828C37.94,39.469,36.674,39.469,35.893,38.688z"/>
        <path class="stroke sun-spoke sun-spoke-west" d="M34.034,50c0,1.104-0.896,1.999-2,1.999h-4c-1.104,0-1.998-0.896-1.998-1.999s0.896-2,1.998-2h4C33.14,48,34.034,48.896,34.034,50z"/>
        <path class="stroke sun-spoke sun-spoke-south-west" d="M35.893,61.312c0.781-0.78,2.048-0.78,2.827,0c0.781,0.78,0.781,2.047,0,2.828l-2.827,2.827c-0.78,0.781-2.047,0.781-2.827,0c-0.781-0.78-0.781-2.047,0-2.827L35.893,61.312z"/>
        <path class="stroke sun-spoke sun-spoke-south" d="M50.034,65.998c1.104,0,2,0.895,2,1.999v4c0,1.104-0.896,2-2,2c-1.105,0-2-0.896-2-2v-4C48.034,66.893,48.929,65.998,50.034,65.998z"/>
        <path class="stroke sun-spoke sun-spoke-south-east" d="M64.175,61.312l2.828,2.828c0.779,0.78,0.779,2.047,0,2.827c-0.781,0.781-2.049,0.781-2.828,0l-2.828-2.827c-0.781-0.781-0.781-2.048,0-2.828C62.126,60.531,63.392,60.531,64.175,61.312z"/>
      </g>

      <g class="sun-body">
        <circle class="stroke" cx="50.034" cy="50" r="11.999"/>
        <circle class="fill" cx="50.034" cy="50" r="7.999"/>
      </g>
    </g>
  </g>
</svg>
