<svg version="1.1"
     id="sunriseFill"
     class="climacon sunrise"
     xmlns="http://www.w3.org/2000/svg"
     xmlns:xlink="http://www.w3.org/1999/xlink"
     x="0px"
     y="0px"
     viewBox="15 15 70 70"
     enable-background="new 15 15 70 70"
     xml:space="preserve">
  <style></style>
  <g>
    <g class="sun">
      <g class="sun-spokes">
        <path class="stroke sun-spoke sun-spoke-east" d="M71.997,57.999h-3.998c-1.104,0-2-0.896-2-1.999s0.896-2,2-2h3.998c1.104,0,2,0.896,2,2S73.104,57.999,71.997,57.999z"/>
        <path class="stroke sun-spoke sun-spoke-east" d="M64.143,44.688c-0.781,0.781-2.05,0.781-2.828,0c-0.781-0.781-0.781-2.047,0-2.828l2.828-2.828c0.778-0.781,2.047-0.781,2.828,0c0.778,0.781,0.778,2.047,0,2.828L64.143,44.688z"/>
        <path class="stroke sun-spoke sun-spoke-east" d="M50.001,40.002c-1.105,0-2-0.896-2-2v-3.999c0-1.104,0.895-2,2-2c1.104,0,2,0.896,2,2v3.999C52.001,39.106,51.104,40.002,50.001,40.002z"/>
        <path class="stroke sun-spoke sun-spoke-east" d="M35.86,44.688l-2.828-2.828c-0.781-0.781-0.781-2.047,0-2.828c0.781-0.781,2.047-0.781,2.828,0l2.828,2.828c0.781,0.781,0.781,2.047,0,2.828C37.907,45.469,36.641,45.469,35.86,44.688z"/>
        <path class="stroke sun-spoke sun-spoke-east" d="M34.002,56c0,1.104-0.896,1.999-2,1.999h-4c-1.104,0-1.999-0.896-1.999-1.999s0.896-2,1.999-2h4C33.107,54,34.002,54.896,34.002,56z"/>
      </g>

      <g class="body">
        <circle class="stroke" cx="50.001" cy="56" r="11.999"/>
        <circle class="fill" cx="50.001" cy="56" r="7.999"/>
      </g>

      <g class="arrow">
        <path class="fill arrow-up" d="M50.001,63.046c0.552,0,0.999-0.447,0.999-1v-3.827l2.536,2.535c0.39,0.391,1.022,0.391,1.414,0c0.39-0.391,0.39-1.023,0-1.414l-4.242-4.242c-0.391-0.391-1.024-0.391-1.414,0l-4.242,4.242c-0.391,0.391-0.391,1.023,0,1.414c0.391,0.391,1.023,0.391,1.414,0l2.535-2.535v3.827C49.001,62.599,49.448,63.046,50.001,63.046z"/>
      </g>

      <g class="horzon">
        <path class="stroke" d="M59.999,63.999H40.001c-1.104,0-1.999,0.896-1.999,2s0.896,1.999,1.999,1.999h19.998c1.104,0,2-0.895,2-1.999S61.104,63.999,59.999,63.999z"/>
      </g>
    </g>
  </g>
</svg>
