<svg version="1.1"
     id="climacon-partly-cloudy-day"
     class="climacon partly-cloudy-day"
     xmlns="http://www.w3.org/2000/svg"
     xmlns:xlink="http://www.w3.org/1999/xlink"
     x="0px"
     y="0px"
     viewBox="15 15 70 70"
     enable-background="new 15 15 70 70"
     xml:space="preserve">
<style>
svg {
  shape-rendering: geometricPrecision; }

circle,
g,
path,
rect {
  animation-duration: 12s;
  animation-iteration-count: infinite;
  animation-timing-function: linear;
  animation-direction: normal;
  transform-box: fill-box;
  transform-origin: 50% 50%; }

.climacon.partly-cloudy-day .fill {
  fill: #fff; }
.climacon.partly-cloudy-day .stroke {
  fill: #fff; }
.climacon.partly-cloudy-day .sun-wrapper {
  transform: translateX(0) translateY(0);
  animation-delay: 0;
  animation-duration: 60s;
  animation-iteration-count: infinite;
  animation-name: behindCloudMove;
  animation-timing-function: ease-out;
  animation-fill-mode: forwards; }
.climacon.partly-cloudy-day .sun {
  animation-delay: 3s;
  animation-duration: 36s;
  animation-iteration-count: infinite;
  animation-name: rotate;
  animation-timing-function: linear; }
  .climacon.partly-cloudy-day .sun .fill {
    fill: #cdcd1d; }
  .climacon.partly-cloudy-day .sun .stroke {
    fill: #dfdf20; }
.climacon.partly-cloudy-day .sun-spoke {
  animation-delay: 3s, 3s;
  animation-duration: 3s;
  animation-iteration-count: 1, infinite;
  animation-name: fillOpacity, scale;
  animation-fill-mode: both;
  fill-opacity: 0;
  animation-direction: alternate; }
.climacon.partly-cloudy-day .sun-spoke:nth-child(even) {
  animation-delay: 3s, 6s; }

@keyframes behindCloudMove {
  0% {
    transform: translateX(-10.75px) translateY(10.75px); }
  20% {
    transform: translateX(0) translateY(0); }
  50% {
    transform: translateX(0) translateY(0); }
  100% {
    transform: translateX(-10.75px) translateY(10.75px); } }
@keyframes rotate {
  0% {
    transform: rotate(0); }
  100% {
    transform: rotate(360deg); } }
@keyframes fillOpacity {
  0% {
    fill-opacity: 0;
    stroke-opacity: 0; }
  100% {
    fill-opacity: 1;
    stroke-opacity: 1; } }

/*# sourceMappingURL=partly_cloudy_day.css.map */
</style>
  <g>
    <g class="sun-wrapper">
      <g class="sun">
        <g class="sun-spokes">
          <path class="stroke sun-spoke" d="M80.029,43.611h-3.998c-1.105,0-2-0.896-2-1.999s0.895-2,2-2h3.998c1.104,0,2,0.896,2,2S81.135,43.611,80.029,43.611z"/>
          <path class="stroke sun-spoke" d="M72.174,30.3c-0.781,0.781-2.049,0.781-2.828,0c-0.781-0.781-0.781-2.047,0-2.828l2.828-2.828c0.779-0.781,2.047-0.781,2.828,0c0.779,0.781,0.779,2.047,0,2.828L72.174,30.3z"/>
          <path class="stroke sun-spoke" d="M58.033,25.614c-1.105,0-2-0.896-2-2v-3.999c0-1.104,0.895-2,2-2c1.104,0,2,0.896,2,2v3.999C60.033,24.718,59.135,25.614,58.033,25.614z"/>
          <path class="stroke sun-spoke" d="M43.892,30.3l-2.827-2.828c-0.781-0.781-0.781-2.047,0-2.828c0.78-0.781,2.047-0.781,2.827,0l2.827,2.828c0.781,0.781,0.781,2.047,0,2.828C45.939,31.081,44.673,31.081,43.892,30.3z"/>
          <path class="stroke sun-spoke" d="M42.033,41.612c0,1.104-0.896,1.999-2,1.999h-4c-1.104,0-1.998-0.896-1.998-1.999s0.896-2,1.998-2h4C41.139,39.612,42.033,40.509,42.033,41.612z"/>
          <path class="stroke sun-spoke" d="M43.892,52.925c0.781-0.78,2.048-0.78,2.827,0c0.781,0.78,0.781,2.047,0,2.828l-2.827,2.827c-0.78,0.781-2.047,0.781-2.827,0c-0.781-0.78-0.781-2.047,0-2.827L43.892,52.925z"/>
          <path class="stroke sun-spoke" d="M58.033,57.61c1.104,0,2,0.895,2,1.999v4c0,1.104-0.896,2-2,2c-1.105,0-2-0.896-2-2v-4C56.033,58.505,56.928,57.61,58.033,57.61z"/>
          <path class="stroke sun-spoke" d="M72.174,52.925l2.828,2.828c0.779,0.78,0.779,2.047,0,2.827c-0.781,0.781-2.049,0.781-2.828,0l-2.828-2.827c-0.781-0.781-0.781-2.048,0-2.828C70.125,52.144,71.391,52.144,72.174,52.925z"/>
        </g>

        <g class="sun-body">
          <circle class="stroke" cx="58.033" cy="41.612" r="11.999"/>
          <circle class="fill" cx="58.033" cy="41.612" r="7.999"/>
        </g>
      </g>
    </g>

    <g class="cloud">
      <path class="stroke" d="M43.945,65.639c-8.835,0-15.998-7.162-15.998-15.998c0-8.836,7.163-15.998,15.998-15.998c6.004,0,11.229,3.312,13.965,8.203c0.664-0.113,1.338-0.205,2.033-0.205c6.627,0,11.998,5.373,11.998,12c0,6.625-5.371,11.998-11.998,11.998C57.168,65.639,47.143,65.639,43.945,65.639z"/>
      <path class="fill" d="M59.943,61.639c4.418,0,8-3.582,8-7.998c0-4.417-3.582-8-8-8c-1.601,0-3.082,0.481-4.334,1.291c-1.23-5.316-5.973-9.29-11.665-9.29c-6.626,0-11.998,5.372-11.998,11.999c0,6.626,5.372,11.998,11.998,11.998C47.562,61.639,56.924,61.639,59.943,61.639z"/>
    </g>
  </g>
</svg>
