<svg version="1.1"
     id="tornado"
     class="climacon tornado"
     xmlns="http://www.w3.org/2000/svg"
     xmlns:xlink="http://www.w3.org/1999/xlink"
     x="0px"
     y="0px"
     viewBox="15 15 70 70"
     enable-background="new 15 15 70 70"
     xml:space="preserve">
<style>
svg {
  shape-rendering: geometricPrecision; }

circle,
g,
path,
rect {
  animation-duration: 12s;
  animation-iteration-count: infinite;
  animation-timing-function: linear;
  animation-direction: normal;
  transform-box: fill-box;
  transform-origin: 50% 50%; }

.climacon.tornado .fill {
  fill: #fff; }
.climacon.tornado .stroke {
  fill: #fff; }
.climacon.tornado .tornado-line {
  animation-duration: 12s;
  animation-iteration-count: infinite;
  animation-name: translateTornado1;
  animation-timing-function: ease-in-out;
  animation-direction: alternate; }
  .climacon.tornado .tornado-line:nth-child(1) {
    animation-name: translateTornado1; }
  .climacon.tornado .tornado-line:nth-child(2) {
    animation-name: translateTornado2; }
  .climacon.tornado .tornado-line:nth-child(3) {
    animation-name: translateTornado3; }
  .climacon.tornado .tornado-line:nth-child(4) {
    animation-name: translateTornado4; }
  .climacon.tornado .tornado-line:nth-child(5) {
    animation-name: translateTornado5; }
  .climacon.tornado .tornado-line:nth-child(6) {
    animation-name: translateTornado6; }

@keyframes translateTornado1 {
  0% {
    transform: translateY(0); }
  25% {
    transform: translateX(4px); }
  75% {
    transform: translateX(-4px); }
  100% {
    transform: translateX(0); } }
@keyframes translateTornado2 {
  0% {
    transform: translateY(0); }
  25% {
    transform: translateX(2px); }
  75% {
    transform: translateX(-2px); }
  100% {
    transform: translateX(0); } }
@keyframes translateTornado3 {
  0% {
    transform: translateY(0); }
  25% {
    transform: translateX(8px); }
  75% {
    transform: translateX(-8px); }
  100% {
    transform: translateX(0); } }
@keyframes translateTornado4 {
  0% {
    transform: translateY(0); }
  25% {
    transform: translateX(6px); }
  75% {
    transform: translateX(-6px); }
  100% {
    transform: translateX(0); } }
@keyframes translateTornado5 {
  0% {
    transform: translateY(0); }
  25% {
    transform: translateX(10px); }
  75% {
    transform: translateX(-10px); }
  100% {
    transform: translateX(0); } }
@keyframes translateTornado6 {
  0% {
    transform: translateY(0); }
  25% {
    transform: translateX(6px); }
  75% {
    transform: translateX(-6px); }
  100% {
    transform: translateX(0); } }

/*# sourceMappingURL=tornado.css.map */
</style>
  <g>
    <g class="tornado-lines">
      <path class="stroke tornado-line" d="M68.997,36.459H31.002c-1.104,0-2-0.896-2-1.999c0-1.104,0.896-2,2-2h37.995c1.104,0,2,0.896,2,2C70.997,35.563,70.102,36.459,68.997,36.459z"/>
      <path class="stroke tornado-line" d="M35.002,40.459h29.996c1.104,0,2,0.896,2,2s-0.896,1.999-2,1.999H35.002c-1.104,0-2-0.896-2-1.999C33.002,41.354,33.898,40.459,35.002,40.459z"/>
      <path class="stroke tornado-line" d="M39.001,48.458h21.998c1.104,0,1.999,0.896,1.999,1.999c0,1.104-0.896,2-1.999,2H39.001c-1.104,0-1.999-0.896-1.999-2C37.002,49.354,37.897,48.458,39.001,48.458z"/>
      <path class="stroke tornado-line" d="M47,64.456h6c1.104,0,2,0.896,2,1.999s-0.896,2-2,2H47c-1.104,0-2-0.896-2-2S45.896,64.456,47,64.456z"/>
      <path class="stroke tornado-line" d="M40.869,58.456c0-1.104,0.896-1.999,2-1.999h13.998c1.104,0,2,0.896,2,1.999c0,1.104-0.896,2-2,2H42.869C41.765,60.456,40.869,59.561,40.869,58.456z"/>
    </g>
  </g>
</svg>
